<svg xmlns="http://www.w3.org/2000/svg" xmlns:xlink="http://www.w3.org/1999/xlink" viewBox="0,0,256,256" width="96px" height="96px"><g fill="#999d9b" fill-rule="nonzero" stroke="none" stroke-width="1" stroke-linecap="butt" stroke-linejoin="miter" stroke-miterlimit="10" stroke-dasharray="" stroke-dashoffset="0" font-family="none" font-weight="none" font-size="none" text-anchor="none" style="mix-blend-mode: normal"><g transform="scale(5.33333,5.33333)"><path d="M24,3.99805c-11.02771,0 -20,8.97229 -20,20c0,3.27532 0.86271,6.33681 2.26172,9.06641l-2.16797,7.76172c-0.50495,1.8034 1.27818,3.58644 3.08203,3.08203l7.76758,-2.16797c2.72738,1.39608 5.78439,2.25781 9.05664,2.25781c11.02771,0 20,-8.97229 20,-20c0,-11.02771 -8.97229,-20 -20,-20zM24,6.99805c9.40629,0 17,7.59371 17,17c0,9.40629 -7.59371,17 -17,17c-3.00158,0 -5.8094,-0.78052 -8.25781,-2.14453c-0.34512,-0.19235 -0.7522,-0.24078 -1.13281,-0.13477l-7.38672,2.06055l2.0625,-7.38281c0.10655,-0.38122 0.05811,-0.7891 -0.13477,-1.13477c-1.36674,-2.4502 -2.15039,-5.25915 -2.15039,-8.26367c0,-9.40629 7.59371,-17 17,-17zM15.5,18.99805c-0.54095,-0.00765 -1.04412,0.27656 -1.31683,0.74381c-0.27271,0.46725 -0.27271,1.04514 0,1.51238c0.27271,0.46725 0.77588,0.75146 1.31683,0.74381h17c0.54095,0.00765 1.04412,-0.27656 1.31683,-0.74381c0.27271,-0.46725 0.27271,-1.04514 0,-1.51238c-0.27271,-0.46725 -0.77588,-0.75146 -1.31683,-0.74381zM15.5,25.99805c-0.54095,-0.00765 -1.04412,0.27656 -1.31683,0.74381c-0.27271,0.46725 -0.27271,1.04514 0,1.51238c0.27271,0.46725 0.77588,0.75146 1.31683,0.74381h13c0.54095,0.00765 1.04412,-0.27656 1.31683,-0.74381c0.27271,-0.46725 0.27271,-1.04514 0,-1.51238c-0.27271,-0.46725 -0.77588,-0.75146 -1.31683,-0.74381z"></path></g></g></svg>